<svg xmlns="http://www.w3.org/2000/svg" viewBox="0 0 800 800" role="img" aria-labelledby="title desc">
  <title id="title">Sản phẩm tóc LADYSTARS</title>
  <desc id="desc">Ảnh minh họa trung tính cho sản phẩm hair system.</desc>
  <defs><linearGradient id="bg" x1="0" y1="0" x2="1" y2="1"><stop stop-color="#dfece3"/><stop offset="1" stop-color="#b7cdbd"/></linearGradient></defs>
  <rect width="800" height="800" fill="url(#bg)"/>
  <circle cx="400" cy="330" r="180" fill="#f0c7a5"/>
  <path d="M220 336c4-149 80-246 184-246 117 0 190 108 177 259-52-74-113-104-185-102-70 2-125 32-176 89z" fill="#2e2b29"/>
  <path d="M236 323c35-86 102-137 176-137 72 0 132 42 166 124-74-55-127-72-179-70-55 2-101 23-163 83z" fill="#443d38"/>
  <path d="M314 482c28 32 62 47 96 47 33 0 64-14 89-41" fill="none" stroke="#9d5c4a" stroke-width="12" stroke-linecap="round"/>
  <circle cx="335" cy="380" r="12" fill="#312c29"/><circle cx="470" cy="380" r="12" fill="#312c29"/>
  <rect x="170" y="585" width="460" height="105" rx="52" fill="#245c43"/>
  <text x="400" y="650" text-anchor="middle" fill="white" font-family="Arial, sans-serif" font-size="40" font-weight="700">LADYSTARS</text>
</svg>
